<svg xmlns="http://www.w3.org/2000/svg" width="960" height="560" viewBox="0 0 960 560">
  <rect width="960" height="560" rx="8" fill="#eef3f7"/><rect width="960" height="52" fill="#fff"/><rect x="22" y="15" width="22" height="22" rx="5" fill="#c30000"/><text x="54" y="33" font-family="Arial" font-size="17" font-weight="700" fill="#1e2b3c">Sak 2026-1842</text>
  <rect x="24" y="72" width="912" height="54" rx="5" fill="#fff"/><text x="44" y="96" font-family="Arial" font-size="13" fill="#4f5f73">Person</text><text x="44" y="114" font-family="Arial" font-size="15" font-weight="700" fill="#1e2b3c">Kari Eksempel</text><text x="270" y="96" font-family="Arial" font-size="13" fill="#4f5f73">Saksstatus</text><text x="270" y="114" font-family="Arial" font-size="15" font-weight="700" fill="#14733c">Under behandling</text>
  <rect x="24" y="146" width="360" height="350" rx="6" fill="#fff"/><text x="48" y="180" font-family="Arial" font-size="19" font-weight="700" fill="#1e2b3c">Behandling</text><rect x="48" y="204" width="300" height="38" rx="4" fill="#e8f3ff"/><text x="64" y="228" font-family="Arial" font-size="14" fill="#0062ba">Vurder vilkår</text><text x="48" y="280" font-family="Arial" font-size="13" fill="#4f5f73">Resultat</text><rect x="48" y="294" width="300" height="44" rx="4" fill="#f1f5f9"/><text x="64" y="321" font-family="Arial" font-size="14" fill="#1e2b3c">Ikke valgt</text><text x="48" y="380" font-family="Arial" font-size="13" fill="#4f5f73">Notat</text><rect x="48" y="394" width="300" height="64" rx="4" fill="#f1f5f9"/><text x="64" y="421" font-family="Arial" font-size="13" fill="#4f5f73">Skriv et notat om vurderingen ...</text>
  <rect x="400" y="146" width="250" height="350" rx="6" fill="#fff"/><text x="424" y="180" font-family="Arial" font-size="19" font-weight="700" fill="#1e2b3c">Behovsmelding</text><text x="424" y="218" font-family="Arial" font-size="13" fill="#4f5f73">Behov</text><text x="424" y="244" font-family="Arial" font-size="14" fill="#1e2b3c">Forflytning i hjemmet</text><text x="424" y="290" font-family="Arial" font-size="13" fill="#4f5f73">Hjelpemidler</text><rect x="424" y="304" width="190" height="34" rx="4" fill="#d9f4e4"/><text x="438" y="326" font-family="Arial" font-size="13" fill="#14733c">Rullator</text><text x="424" y="390" font-family="Arial" font-size="13" fill="#4f5f73">Dokumenter</text><text x="424" y="420" font-family="Arial" font-size="14" fill="#0062ba">3 dokumenter</text>
  <rect x="666" y="146" width="270" height="350" rx="6" fill="#fff"/><text x="690" y="180" font-family="Arial" font-size="19" font-weight="700" fill="#1e2b3c">Siste aktivitet</text><circle cx="700" cy="222" r="7" fill="#0062ba"/><text x="720" y="227" font-family="Arial" font-size="13" fill="#1e2b3c">Søknad journalført</text><text x="720" y="247" font-family="Arial" font-size="12" fill="#4f5f73">I dag, 09:14</text><circle cx="700" cy="284" r="7" fill="#14733c"/><text x="720" y="289" font-family="Arial" font-size="13" fill="#1e2b3c">Dokument lagt til</text><text x="720" y="309" font-family="Arial" font-size="12" fill="#4f5f73">I går, 14:32</text>
</svg>
